<mxfile host="app.diagrams.net" modified="2023-11-29T04:35:48.533Z" agent="Mozilla/5.0 (Windows NT 10.0; Win64; x64) AppleWebKit/537.36 (KHTML, like Gecko) Chrome/119.0.0.0 Safari/537.36" etag="TGzRiugholQvrwdw8pnc" version="22.1.4" type="gitlab">
  <diagram name="Page-1" id="pcQaBJxJMnwsggvPgsSJ">
    <mxGraphModel dx="1843" dy="863" grid="1" gridSize="10" guides="1" tooltips="1" connect="1" arrows="1" fold="1" page="1" pageScale="1" pageWidth="850" pageHeight="1100" math="0" shadow="0">
      <root>
        <mxCell id="0" />
        <mxCell id="1" parent="0" />
        <mxCell id="ZVA1BWeULTHNvcGJV3LB-1" value="Giggles Gears" style="whiteSpace=wrap;html=1;rounded=0;shadow=0;labelBackgroundColor=none;strokeWidth=1;fontFamily=Verdana;fontSize=28;align=center;comic=1;" vertex="1" parent="1">
          <mxGeometry x="40" y="60" width="310" height="50" as="geometry" />
        </mxCell>
        <mxCell id="ZVA1BWeULTHNvcGJV3LB-2" value="Home" style="text;html=1;points=[];align=left;verticalAlign=top;spacingTop=-4;fontSize=14;fontFamily=Verdana" vertex="1" parent="1">
          <mxGeometry x="580" y="75" width="60" height="20" as="geometry" />
        </mxCell>
        <mxCell id="ZVA1BWeULTHNvcGJV3LB-3" value="SmartSearch" style="text;html=1;points=[];align=left;verticalAlign=top;spacingTop=-4;fontSize=14;fontFamily=Verdana" vertex="1" parent="1">
          <mxGeometry x="730" y="75" width="60" height="20" as="geometry" />
        </mxCell>
        <mxCell id="ZVA1BWeULTHNvcGJV3LB-4" value="Wishlist" style="text;html=1;points=[];align=left;verticalAlign=top;spacingTop=-4;fontSize=14;fontFamily=Verdana" vertex="1" parent="1">
          <mxGeometry x="920" y="75" width="60" height="20" as="geometry" />
        </mxCell>
        <mxCell id="ZVA1BWeULTHNvcGJV3LB-5" value="Profile" style="text;html=1;points=[];align=left;verticalAlign=top;spacingTop=-4;fontSize=14;fontFamily=Verdana" vertex="1" parent="1">
          <mxGeometry x="1000" y="75" width="60" height="20" as="geometry" />
        </mxCell>
        <mxCell id="ZVA1BWeULTHNvcGJV3LB-6" value="Catalogue" style="text;html=1;points=[];align=left;verticalAlign=top;spacingTop=-4;fontSize=14;fontFamily=Verdana" vertex="1" parent="1">
          <mxGeometry x="640" y="75" width="60" height="20" as="geometry" />
        </mxCell>
        <mxCell id="ZVA1BWeULTHNvcGJV3LB-7" value="History" style="text;html=1;points=[];align=left;verticalAlign=top;spacingTop=-4;fontSize=14;fontFamily=Verdana" vertex="1" parent="1">
          <mxGeometry x="840" y="75" width="60" height="20" as="geometry" />
        </mxCell>
        <mxCell id="ZVA1BWeULTHNvcGJV3LB-8" value="" style="whiteSpace=wrap;html=1;rounded=0;shadow=0;labelBackgroundColor=none;strokeColor=#000000;strokeWidth=1;fillColor=none;fontFamily=Verdana;fontSize=12;fontColor=#000000;align=center;comic=1;" vertex="1" parent="1">
          <mxGeometry x="20" y="20" width="1060" height="810" as="geometry" />
        </mxCell>
        <mxCell id="ZVA1BWeULTHNvcGJV3LB-9" value="" style="line;strokeWidth=1;html=1;rounded=0;shadow=0;labelBackgroundColor=none;fillColor=none;fontFamily=Verdana;fontSize=14;fontColor=#000000;align=center;comic=1;" vertex="1" parent="1">
          <mxGeometry x="20" y="140" width="1060" height="10" as="geometry" />
        </mxCell>
        <mxCell id="ZVA1BWeULTHNvcGJV3LB-10" value="Footer" style="whiteSpace=wrap;html=1;rounded=0;shadow=0;labelBackgroundColor=none;strokeWidth=1;fillColor=none;fontFamily=Verdana;fontSize=12;align=center;comic=1;" vertex="1" parent="1">
          <mxGeometry x="20" y="780" width="1050" height="50" as="geometry" />
        </mxCell>
        <mxCell id="ZVA1BWeULTHNvcGJV3LB-12" value="&lt;font style=&quot;font-size: 14px;&quot;&gt;Your Wishlit&lt;/font&gt;" style="whiteSpace=wrap;html=1;rounded=0;shadow=0;labelBackgroundColor=none;strokeWidth=1;fillColor=none;fontFamily=Verdana;fontSize=12;align=center;comic=1;" vertex="1" parent="1">
          <mxGeometry x="30" y="160" width="1030" height="50" as="geometry" />
        </mxCell>
        <mxCell id="ZVA1BWeULTHNvcGJV3LB-17" value="" style="shape=table;startSize=0;container=1;collapsible=0;childLayout=tableLayout;fontSize=16;" vertex="1" parent="1">
          <mxGeometry x="40" y="250" width="490" height="120" as="geometry" />
        </mxCell>
        <mxCell id="ZVA1BWeULTHNvcGJV3LB-18" value="" style="shape=tableRow;horizontal=0;startSize=0;swimlaneHead=0;swimlaneBody=0;strokeColor=inherit;top=0;left=0;bottom=0;right=0;collapsible=0;dropTarget=0;fillColor=none;points=[[0,0.5],[1,0.5]];portConstraint=eastwest;fontSize=16;" vertex="1" parent="ZVA1BWeULTHNvcGJV3LB-17">
          <mxGeometry width="490" height="41" as="geometry" />
        </mxCell>
        <mxCell id="ZVA1BWeULTHNvcGJV3LB-19" value="Car Name" style="shape=partialRectangle;html=1;whiteSpace=wrap;connectable=0;strokeColor=inherit;overflow=hidden;fillColor=none;top=0;left=0;bottom=0;right=0;pointerEvents=1;fontSize=16;" vertex="1" parent="ZVA1BWeULTHNvcGJV3LB-18">
          <mxGeometry width="163" height="41" as="geometry">
            <mxRectangle width="163" height="41" as="alternateBounds" />
          </mxGeometry>
        </mxCell>
        <mxCell id="ZVA1BWeULTHNvcGJV3LB-20" value="Brand" style="shape=partialRectangle;html=1;whiteSpace=wrap;connectable=0;strokeColor=inherit;overflow=hidden;fillColor=none;top=0;left=0;bottom=0;right=0;pointerEvents=1;fontSize=16;" vertex="1" parent="ZVA1BWeULTHNvcGJV3LB-18">
          <mxGeometry x="163" width="164" height="41" as="geometry">
            <mxRectangle width="164" height="41" as="alternateBounds" />
          </mxGeometry>
        </mxCell>
        <mxCell id="ZVA1BWeULTHNvcGJV3LB-21" value="Age" style="shape=partialRectangle;html=1;whiteSpace=wrap;connectable=0;strokeColor=inherit;overflow=hidden;fillColor=none;top=0;left=0;bottom=0;right=0;pointerEvents=1;fontSize=16;" vertex="1" parent="ZVA1BWeULTHNvcGJV3LB-18">
          <mxGeometry x="327" width="163" height="41" as="geometry">
            <mxRectangle width="163" height="41" as="alternateBounds" />
          </mxGeometry>
        </mxCell>
        <mxCell id="ZVA1BWeULTHNvcGJV3LB-22" value="" style="shape=tableRow;horizontal=0;startSize=0;swimlaneHead=0;swimlaneBody=0;strokeColor=inherit;top=0;left=0;bottom=0;right=0;collapsible=0;dropTarget=0;fillColor=none;points=[[0,0.5],[1,0.5]];portConstraint=eastwest;fontSize=16;" vertex="1" parent="ZVA1BWeULTHNvcGJV3LB-17">
          <mxGeometry y="41" width="490" height="41" as="geometry" />
        </mxCell>
        <mxCell id="ZVA1BWeULTHNvcGJV3LB-23" value="" style="shape=partialRectangle;html=1;whiteSpace=wrap;connectable=0;strokeColor=inherit;overflow=hidden;fillColor=none;top=0;left=0;bottom=0;right=0;pointerEvents=1;fontSize=16;" vertex="1" parent="ZVA1BWeULTHNvcGJV3LB-22">
          <mxGeometry width="163" height="41" as="geometry">
            <mxRectangle width="163" height="41" as="alternateBounds" />
          </mxGeometry>
        </mxCell>
        <mxCell id="ZVA1BWeULTHNvcGJV3LB-24" value="" style="shape=partialRectangle;html=1;whiteSpace=wrap;connectable=0;strokeColor=inherit;overflow=hidden;fillColor=none;top=0;left=0;bottom=0;right=0;pointerEvents=1;fontSize=16;" vertex="1" parent="ZVA1BWeULTHNvcGJV3LB-22">
          <mxGeometry x="163" width="164" height="41" as="geometry">
            <mxRectangle width="164" height="41" as="alternateBounds" />
          </mxGeometry>
        </mxCell>
        <mxCell id="ZVA1BWeULTHNvcGJV3LB-25" value="" style="shape=partialRectangle;html=1;whiteSpace=wrap;connectable=0;strokeColor=inherit;overflow=hidden;fillColor=none;top=0;left=0;bottom=0;right=0;pointerEvents=1;fontSize=16;" vertex="1" parent="ZVA1BWeULTHNvcGJV3LB-22">
          <mxGeometry x="327" width="163" height="41" as="geometry">
            <mxRectangle width="163" height="41" as="alternateBounds" />
          </mxGeometry>
        </mxCell>
        <mxCell id="ZVA1BWeULTHNvcGJV3LB-26" value="" style="shape=tableRow;horizontal=0;startSize=0;swimlaneHead=0;swimlaneBody=0;strokeColor=inherit;top=0;left=0;bottom=0;right=0;collapsible=0;dropTarget=0;fillColor=none;points=[[0,0.5],[1,0.5]];portConstraint=eastwest;fontSize=16;" vertex="1" parent="ZVA1BWeULTHNvcGJV3LB-17">
          <mxGeometry y="82" width="490" height="38" as="geometry" />
        </mxCell>
        <mxCell id="ZVA1BWeULTHNvcGJV3LB-27" value="" style="shape=partialRectangle;html=1;whiteSpace=wrap;connectable=0;strokeColor=inherit;overflow=hidden;fillColor=none;top=0;left=0;bottom=0;right=0;pointerEvents=1;fontSize=16;" vertex="1" parent="ZVA1BWeULTHNvcGJV3LB-26">
          <mxGeometry width="163" height="38" as="geometry">
            <mxRectangle width="163" height="38" as="alternateBounds" />
          </mxGeometry>
        </mxCell>
        <mxCell id="ZVA1BWeULTHNvcGJV3LB-28" value="" style="shape=partialRectangle;html=1;whiteSpace=wrap;connectable=0;strokeColor=inherit;overflow=hidden;fillColor=none;top=0;left=0;bottom=0;right=0;pointerEvents=1;fontSize=16;" vertex="1" parent="ZVA1BWeULTHNvcGJV3LB-26">
          <mxGeometry x="163" width="164" height="38" as="geometry">
            <mxRectangle width="164" height="38" as="alternateBounds" />
          </mxGeometry>
        </mxCell>
        <mxCell id="ZVA1BWeULTHNvcGJV3LB-29" value="" style="shape=partialRectangle;html=1;whiteSpace=wrap;connectable=0;strokeColor=inherit;overflow=hidden;fillColor=none;top=0;left=0;bottom=0;right=0;pointerEvents=1;fontSize=16;" vertex="1" parent="ZVA1BWeULTHNvcGJV3LB-26">
          <mxGeometry x="327" width="163" height="38" as="geometry">
            <mxRectangle width="163" height="38" as="alternateBounds" />
          </mxGeometry>
        </mxCell>
        <mxCell id="ZVA1BWeULTHNvcGJV3LB-30" value="" style="shape=table;startSize=0;container=1;collapsible=0;childLayout=tableLayout;fontSize=16;" vertex="1" parent="1">
          <mxGeometry x="530" y="250" width="520" height="120" as="geometry" />
        </mxCell>
        <mxCell id="ZVA1BWeULTHNvcGJV3LB-31" value="" style="shape=tableRow;horizontal=0;startSize=0;swimlaneHead=0;swimlaneBody=0;strokeColor=inherit;top=0;left=0;bottom=0;right=0;collapsible=0;dropTarget=0;fillColor=none;points=[[0,0.5],[1,0.5]];portConstraint=eastwest;fontSize=16;" vertex="1" parent="ZVA1BWeULTHNvcGJV3LB-30">
          <mxGeometry width="520" height="41" as="geometry" />
        </mxCell>
        <mxCell id="ZVA1BWeULTHNvcGJV3LB-32" value="Price" style="shape=partialRectangle;html=1;whiteSpace=wrap;connectable=0;strokeColor=inherit;overflow=hidden;fillColor=none;top=0;left=0;bottom=0;right=0;pointerEvents=1;fontSize=16;" vertex="1" parent="ZVA1BWeULTHNvcGJV3LB-31">
          <mxGeometry width="173" height="41" as="geometry">
            <mxRectangle width="173" height="41" as="alternateBounds" />
          </mxGeometry>
        </mxCell>
        <mxCell id="ZVA1BWeULTHNvcGJV3LB-33" value="Added On" style="shape=partialRectangle;html=1;whiteSpace=wrap;connectable=0;strokeColor=inherit;overflow=hidden;fillColor=none;top=0;left=0;bottom=0;right=0;pointerEvents=1;fontSize=16;" vertex="1" parent="ZVA1BWeULTHNvcGJV3LB-31">
          <mxGeometry x="173" width="174" height="41" as="geometry">
            <mxRectangle width="174" height="41" as="alternateBounds" />
          </mxGeometry>
        </mxCell>
        <mxCell id="ZVA1BWeULTHNvcGJV3LB-34" value="Remove?" style="shape=partialRectangle;html=1;whiteSpace=wrap;connectable=0;strokeColor=inherit;overflow=hidden;fillColor=none;top=0;left=0;bottom=0;right=0;pointerEvents=1;fontSize=16;" vertex="1" parent="ZVA1BWeULTHNvcGJV3LB-31">
          <mxGeometry x="347" width="173" height="41" as="geometry">
            <mxRectangle width="173" height="41" as="alternateBounds" />
          </mxGeometry>
        </mxCell>
        <mxCell id="ZVA1BWeULTHNvcGJV3LB-35" value="" style="shape=tableRow;horizontal=0;startSize=0;swimlaneHead=0;swimlaneBody=0;strokeColor=inherit;top=0;left=0;bottom=0;right=0;collapsible=0;dropTarget=0;fillColor=none;points=[[0,0.5],[1,0.5]];portConstraint=eastwest;fontSize=16;" vertex="1" parent="ZVA1BWeULTHNvcGJV3LB-30">
          <mxGeometry y="41" width="520" height="41" as="geometry" />
        </mxCell>
        <mxCell id="ZVA1BWeULTHNvcGJV3LB-36" value="" style="shape=partialRectangle;html=1;whiteSpace=wrap;connectable=0;strokeColor=inherit;overflow=hidden;fillColor=none;top=0;left=0;bottom=0;right=0;pointerEvents=1;fontSize=16;" vertex="1" parent="ZVA1BWeULTHNvcGJV3LB-35">
          <mxGeometry width="173" height="41" as="geometry">
            <mxRectangle width="173" height="41" as="alternateBounds" />
          </mxGeometry>
        </mxCell>
        <mxCell id="ZVA1BWeULTHNvcGJV3LB-37" value="" style="shape=partialRectangle;html=1;whiteSpace=wrap;connectable=0;strokeColor=inherit;overflow=hidden;fillColor=none;top=0;left=0;bottom=0;right=0;pointerEvents=1;fontSize=16;" vertex="1" parent="ZVA1BWeULTHNvcGJV3LB-35">
          <mxGeometry x="173" width="174" height="41" as="geometry">
            <mxRectangle width="174" height="41" as="alternateBounds" />
          </mxGeometry>
        </mxCell>
        <mxCell id="ZVA1BWeULTHNvcGJV3LB-38" value="" style="shape=partialRectangle;html=1;whiteSpace=wrap;connectable=0;strokeColor=inherit;overflow=hidden;fillColor=none;top=0;left=0;bottom=0;right=0;pointerEvents=1;fontSize=16;" vertex="1" parent="ZVA1BWeULTHNvcGJV3LB-35">
          <mxGeometry x="347" width="173" height="41" as="geometry">
            <mxRectangle width="173" height="41" as="alternateBounds" />
          </mxGeometry>
        </mxCell>
        <mxCell id="ZVA1BWeULTHNvcGJV3LB-39" value="" style="shape=tableRow;horizontal=0;startSize=0;swimlaneHead=0;swimlaneBody=0;strokeColor=inherit;top=0;left=0;bottom=0;right=0;collapsible=0;dropTarget=0;fillColor=none;points=[[0,0.5],[1,0.5]];portConstraint=eastwest;fontSize=16;" vertex="1" parent="ZVA1BWeULTHNvcGJV3LB-30">
          <mxGeometry y="82" width="520" height="38" as="geometry" />
        </mxCell>
        <mxCell id="ZVA1BWeULTHNvcGJV3LB-40" value="" style="shape=partialRectangle;html=1;whiteSpace=wrap;connectable=0;strokeColor=inherit;overflow=hidden;fillColor=none;top=0;left=0;bottom=0;right=0;pointerEvents=1;fontSize=16;" vertex="1" parent="ZVA1BWeULTHNvcGJV3LB-39">
          <mxGeometry width="173" height="38" as="geometry">
            <mxRectangle width="173" height="38" as="alternateBounds" />
          </mxGeometry>
        </mxCell>
        <mxCell id="ZVA1BWeULTHNvcGJV3LB-41" value="" style="shape=partialRectangle;html=1;whiteSpace=wrap;connectable=0;strokeColor=inherit;overflow=hidden;fillColor=none;top=0;left=0;bottom=0;right=0;pointerEvents=1;fontSize=16;" vertex="1" parent="ZVA1BWeULTHNvcGJV3LB-39">
          <mxGeometry x="173" width="174" height="38" as="geometry">
            <mxRectangle width="174" height="38" as="alternateBounds" />
          </mxGeometry>
        </mxCell>
        <mxCell id="ZVA1BWeULTHNvcGJV3LB-42" value="" style="shape=partialRectangle;html=1;whiteSpace=wrap;connectable=0;strokeColor=inherit;overflow=hidden;fillColor=none;top=0;left=0;bottom=0;right=0;pointerEvents=1;fontSize=16;" vertex="1" parent="ZVA1BWeULTHNvcGJV3LB-39">
          <mxGeometry x="347" width="173" height="38" as="geometry">
            <mxRectangle width="173" height="38" as="alternateBounds" />
          </mxGeometry>
        </mxCell>
        <mxCell id="ZVA1BWeULTHNvcGJV3LB-43" value="" style="shape=table;startSize=0;container=1;collapsible=0;childLayout=tableLayout;fontSize=16;" vertex="1" parent="1">
          <mxGeometry x="40" y="370" width="490" height="120" as="geometry" />
        </mxCell>
        <mxCell id="ZVA1BWeULTHNvcGJV3LB-44" value="" style="shape=tableRow;horizontal=0;startSize=0;swimlaneHead=0;swimlaneBody=0;strokeColor=inherit;top=0;left=0;bottom=0;right=0;collapsible=0;dropTarget=0;fillColor=none;points=[[0,0.5],[1,0.5]];portConstraint=eastwest;fontSize=16;" vertex="1" parent="ZVA1BWeULTHNvcGJV3LB-43">
          <mxGeometry width="490" height="41" as="geometry" />
        </mxCell>
        <mxCell id="ZVA1BWeULTHNvcGJV3LB-45" value="" style="shape=partialRectangle;html=1;whiteSpace=wrap;connectable=0;strokeColor=inherit;overflow=hidden;fillColor=none;top=0;left=0;bottom=0;right=0;pointerEvents=1;fontSize=16;" vertex="1" parent="ZVA1BWeULTHNvcGJV3LB-44">
          <mxGeometry width="163" height="41" as="geometry">
            <mxRectangle width="163" height="41" as="alternateBounds" />
          </mxGeometry>
        </mxCell>
        <mxCell id="ZVA1BWeULTHNvcGJV3LB-46" value="" style="shape=partialRectangle;html=1;whiteSpace=wrap;connectable=0;strokeColor=inherit;overflow=hidden;fillColor=none;top=0;left=0;bottom=0;right=0;pointerEvents=1;fontSize=16;" vertex="1" parent="ZVA1BWeULTHNvcGJV3LB-44">
          <mxGeometry x="163" width="164" height="41" as="geometry">
            <mxRectangle width="164" height="41" as="alternateBounds" />
          </mxGeometry>
        </mxCell>
        <mxCell id="ZVA1BWeULTHNvcGJV3LB-47" value="" style="shape=partialRectangle;html=1;whiteSpace=wrap;connectable=0;strokeColor=inherit;overflow=hidden;fillColor=none;top=0;left=0;bottom=0;right=0;pointerEvents=1;fontSize=16;" vertex="1" parent="ZVA1BWeULTHNvcGJV3LB-44">
          <mxGeometry x="327" width="163" height="41" as="geometry">
            <mxRectangle width="163" height="41" as="alternateBounds" />
          </mxGeometry>
        </mxCell>
        <mxCell id="ZVA1BWeULTHNvcGJV3LB-48" value="" style="shape=tableRow;horizontal=0;startSize=0;swimlaneHead=0;swimlaneBody=0;strokeColor=inherit;top=0;left=0;bottom=0;right=0;collapsible=0;dropTarget=0;fillColor=none;points=[[0,0.5],[1,0.5]];portConstraint=eastwest;fontSize=16;" vertex="1" parent="ZVA1BWeULTHNvcGJV3LB-43">
          <mxGeometry y="41" width="490" height="41" as="geometry" />
        </mxCell>
        <mxCell id="ZVA1BWeULTHNvcGJV3LB-49" value="" style="shape=partialRectangle;html=1;whiteSpace=wrap;connectable=0;strokeColor=inherit;overflow=hidden;fillColor=none;top=0;left=0;bottom=0;right=0;pointerEvents=1;fontSize=16;" vertex="1" parent="ZVA1BWeULTHNvcGJV3LB-48">
          <mxGeometry width="163" height="41" as="geometry">
            <mxRectangle width="163" height="41" as="alternateBounds" />
          </mxGeometry>
        </mxCell>
        <mxCell id="ZVA1BWeULTHNvcGJV3LB-50" value="" style="shape=partialRectangle;html=1;whiteSpace=wrap;connectable=0;strokeColor=inherit;overflow=hidden;fillColor=none;top=0;left=0;bottom=0;right=0;pointerEvents=1;fontSize=16;" vertex="1" parent="ZVA1BWeULTHNvcGJV3LB-48">
          <mxGeometry x="163" width="164" height="41" as="geometry">
            <mxRectangle width="164" height="41" as="alternateBounds" />
          </mxGeometry>
        </mxCell>
        <mxCell id="ZVA1BWeULTHNvcGJV3LB-51" value="" style="shape=partialRectangle;html=1;whiteSpace=wrap;connectable=0;strokeColor=inherit;overflow=hidden;fillColor=none;top=0;left=0;bottom=0;right=0;pointerEvents=1;fontSize=16;" vertex="1" parent="ZVA1BWeULTHNvcGJV3LB-48">
          <mxGeometry x="327" width="163" height="41" as="geometry">
            <mxRectangle width="163" height="41" as="alternateBounds" />
          </mxGeometry>
        </mxCell>
        <mxCell id="ZVA1BWeULTHNvcGJV3LB-52" value="" style="shape=tableRow;horizontal=0;startSize=0;swimlaneHead=0;swimlaneBody=0;strokeColor=inherit;top=0;left=0;bottom=0;right=0;collapsible=0;dropTarget=0;fillColor=none;points=[[0,0.5],[1,0.5]];portConstraint=eastwest;fontSize=16;" vertex="1" parent="ZVA1BWeULTHNvcGJV3LB-43">
          <mxGeometry y="82" width="490" height="38" as="geometry" />
        </mxCell>
        <mxCell id="ZVA1BWeULTHNvcGJV3LB-53" value="" style="shape=partialRectangle;html=1;whiteSpace=wrap;connectable=0;strokeColor=inherit;overflow=hidden;fillColor=none;top=0;left=0;bottom=0;right=0;pointerEvents=1;fontSize=16;" vertex="1" parent="ZVA1BWeULTHNvcGJV3LB-52">
          <mxGeometry width="163" height="38" as="geometry">
            <mxRectangle width="163" height="38" as="alternateBounds" />
          </mxGeometry>
        </mxCell>
        <mxCell id="ZVA1BWeULTHNvcGJV3LB-54" value="" style="shape=partialRectangle;html=1;whiteSpace=wrap;connectable=0;strokeColor=inherit;overflow=hidden;fillColor=none;top=0;left=0;bottom=0;right=0;pointerEvents=1;fontSize=16;" vertex="1" parent="ZVA1BWeULTHNvcGJV3LB-52">
          <mxGeometry x="163" width="164" height="38" as="geometry">
            <mxRectangle width="164" height="38" as="alternateBounds" />
          </mxGeometry>
        </mxCell>
        <mxCell id="ZVA1BWeULTHNvcGJV3LB-55" value="" style="shape=partialRectangle;html=1;whiteSpace=wrap;connectable=0;strokeColor=inherit;overflow=hidden;fillColor=none;top=0;left=0;bottom=0;right=0;pointerEvents=1;fontSize=16;" vertex="1" parent="ZVA1BWeULTHNvcGJV3LB-52">
          <mxGeometry x="327" width="163" height="38" as="geometry">
            <mxRectangle width="163" height="38" as="alternateBounds" />
          </mxGeometry>
        </mxCell>
        <mxCell id="ZVA1BWeULTHNvcGJV3LB-56" value="" style="shape=table;startSize=0;container=1;collapsible=0;childLayout=tableLayout;fontSize=16;" vertex="1" parent="1">
          <mxGeometry x="530" y="370" width="520" height="120" as="geometry" />
        </mxCell>
        <mxCell id="ZVA1BWeULTHNvcGJV3LB-57" value="" style="shape=tableRow;horizontal=0;startSize=0;swimlaneHead=0;swimlaneBody=0;strokeColor=inherit;top=0;left=0;bottom=0;right=0;collapsible=0;dropTarget=0;fillColor=none;points=[[0,0.5],[1,0.5]];portConstraint=eastwest;fontSize=16;" vertex="1" parent="ZVA1BWeULTHNvcGJV3LB-56">
          <mxGeometry width="520" height="41" as="geometry" />
        </mxCell>
        <mxCell id="ZVA1BWeULTHNvcGJV3LB-58" value="" style="shape=partialRectangle;html=1;whiteSpace=wrap;connectable=0;strokeColor=inherit;overflow=hidden;fillColor=none;top=0;left=0;bottom=0;right=0;pointerEvents=1;fontSize=16;" vertex="1" parent="ZVA1BWeULTHNvcGJV3LB-57">
          <mxGeometry width="173" height="41" as="geometry">
            <mxRectangle width="173" height="41" as="alternateBounds" />
          </mxGeometry>
        </mxCell>
        <mxCell id="ZVA1BWeULTHNvcGJV3LB-59" value="" style="shape=partialRectangle;html=1;whiteSpace=wrap;connectable=0;strokeColor=inherit;overflow=hidden;fillColor=none;top=0;left=0;bottom=0;right=0;pointerEvents=1;fontSize=16;" vertex="1" parent="ZVA1BWeULTHNvcGJV3LB-57">
          <mxGeometry x="173" width="174" height="41" as="geometry">
            <mxRectangle width="174" height="41" as="alternateBounds" />
          </mxGeometry>
        </mxCell>
        <mxCell id="ZVA1BWeULTHNvcGJV3LB-60" value="" style="shape=partialRectangle;html=1;whiteSpace=wrap;connectable=0;strokeColor=inherit;overflow=hidden;fillColor=none;top=0;left=0;bottom=0;right=0;pointerEvents=1;fontSize=16;" vertex="1" parent="ZVA1BWeULTHNvcGJV3LB-57">
          <mxGeometry x="347" width="173" height="41" as="geometry">
            <mxRectangle width="173" height="41" as="alternateBounds" />
          </mxGeometry>
        </mxCell>
        <mxCell id="ZVA1BWeULTHNvcGJV3LB-61" value="" style="shape=tableRow;horizontal=0;startSize=0;swimlaneHead=0;swimlaneBody=0;strokeColor=inherit;top=0;left=0;bottom=0;right=0;collapsible=0;dropTarget=0;fillColor=none;points=[[0,0.5],[1,0.5]];portConstraint=eastwest;fontSize=16;" vertex="1" parent="ZVA1BWeULTHNvcGJV3LB-56">
          <mxGeometry y="41" width="520" height="41" as="geometry" />
        </mxCell>
        <mxCell id="ZVA1BWeULTHNvcGJV3LB-62" value="" style="shape=partialRectangle;html=1;whiteSpace=wrap;connectable=0;strokeColor=inherit;overflow=hidden;fillColor=none;top=0;left=0;bottom=0;right=0;pointerEvents=1;fontSize=16;" vertex="1" parent="ZVA1BWeULTHNvcGJV3LB-61">
          <mxGeometry width="173" height="41" as="geometry">
            <mxRectangle width="173" height="41" as="alternateBounds" />
          </mxGeometry>
        </mxCell>
        <mxCell id="ZVA1BWeULTHNvcGJV3LB-63" value="" style="shape=partialRectangle;html=1;whiteSpace=wrap;connectable=0;strokeColor=inherit;overflow=hidden;fillColor=none;top=0;left=0;bottom=0;right=0;pointerEvents=1;fontSize=16;" vertex="1" parent="ZVA1BWeULTHNvcGJV3LB-61">
          <mxGeometry x="173" width="174" height="41" as="geometry">
            <mxRectangle width="174" height="41" as="alternateBounds" />
          </mxGeometry>
        </mxCell>
        <mxCell id="ZVA1BWeULTHNvcGJV3LB-64" value="" style="shape=partialRectangle;html=1;whiteSpace=wrap;connectable=0;strokeColor=inherit;overflow=hidden;fillColor=none;top=0;left=0;bottom=0;right=0;pointerEvents=1;fontSize=16;" vertex="1" parent="ZVA1BWeULTHNvcGJV3LB-61">
          <mxGeometry x="347" width="173" height="41" as="geometry">
            <mxRectangle width="173" height="41" as="alternateBounds" />
          </mxGeometry>
        </mxCell>
        <mxCell id="ZVA1BWeULTHNvcGJV3LB-65" value="" style="shape=tableRow;horizontal=0;startSize=0;swimlaneHead=0;swimlaneBody=0;strokeColor=inherit;top=0;left=0;bottom=0;right=0;collapsible=0;dropTarget=0;fillColor=none;points=[[0,0.5],[1,0.5]];portConstraint=eastwest;fontSize=16;" vertex="1" parent="ZVA1BWeULTHNvcGJV3LB-56">
          <mxGeometry y="82" width="520" height="38" as="geometry" />
        </mxCell>
        <mxCell id="ZVA1BWeULTHNvcGJV3LB-66" value="" style="shape=partialRectangle;html=1;whiteSpace=wrap;connectable=0;strokeColor=inherit;overflow=hidden;fillColor=none;top=0;left=0;bottom=0;right=0;pointerEvents=1;fontSize=16;" vertex="1" parent="ZVA1BWeULTHNvcGJV3LB-65">
          <mxGeometry width="173" height="38" as="geometry">
            <mxRectangle width="173" height="38" as="alternateBounds" />
          </mxGeometry>
        </mxCell>
        <mxCell id="ZVA1BWeULTHNvcGJV3LB-67" value="" style="shape=partialRectangle;html=1;whiteSpace=wrap;connectable=0;strokeColor=inherit;overflow=hidden;fillColor=none;top=0;left=0;bottom=0;right=0;pointerEvents=1;fontSize=16;" vertex="1" parent="ZVA1BWeULTHNvcGJV3LB-65">
          <mxGeometry x="173" width="174" height="38" as="geometry">
            <mxRectangle width="174" height="38" as="alternateBounds" />
          </mxGeometry>
        </mxCell>
        <mxCell id="ZVA1BWeULTHNvcGJV3LB-68" value="" style="shape=partialRectangle;html=1;whiteSpace=wrap;connectable=0;strokeColor=inherit;overflow=hidden;fillColor=none;top=0;left=0;bottom=0;right=0;pointerEvents=1;fontSize=16;" vertex="1" parent="ZVA1BWeULTHNvcGJV3LB-65">
          <mxGeometry x="347" width="173" height="38" as="geometry">
            <mxRectangle width="173" height="38" as="alternateBounds" />
          </mxGeometry>
        </mxCell>
        <mxCell id="ZVA1BWeULTHNvcGJV3LB-69" value="" style="shape=table;startSize=0;container=1;collapsible=0;childLayout=tableLayout;fontSize=16;" vertex="1" parent="1">
          <mxGeometry x="40" y="490" width="490" height="120" as="geometry" />
        </mxCell>
        <mxCell id="ZVA1BWeULTHNvcGJV3LB-70" value="" style="shape=tableRow;horizontal=0;startSize=0;swimlaneHead=0;swimlaneBody=0;strokeColor=inherit;top=0;left=0;bottom=0;right=0;collapsible=0;dropTarget=0;fillColor=none;points=[[0,0.5],[1,0.5]];portConstraint=eastwest;fontSize=16;" vertex="1" parent="ZVA1BWeULTHNvcGJV3LB-69">
          <mxGeometry width="490" height="41" as="geometry" />
        </mxCell>
        <mxCell id="ZVA1BWeULTHNvcGJV3LB-71" value="" style="shape=partialRectangle;html=1;whiteSpace=wrap;connectable=0;strokeColor=inherit;overflow=hidden;fillColor=none;top=0;left=0;bottom=0;right=0;pointerEvents=1;fontSize=16;" vertex="1" parent="ZVA1BWeULTHNvcGJV3LB-70">
          <mxGeometry width="163" height="41" as="geometry">
            <mxRectangle width="163" height="41" as="alternateBounds" />
          </mxGeometry>
        </mxCell>
        <mxCell id="ZVA1BWeULTHNvcGJV3LB-72" value="" style="shape=partialRectangle;html=1;whiteSpace=wrap;connectable=0;strokeColor=inherit;overflow=hidden;fillColor=none;top=0;left=0;bottom=0;right=0;pointerEvents=1;fontSize=16;" vertex="1" parent="ZVA1BWeULTHNvcGJV3LB-70">
          <mxGeometry x="163" width="164" height="41" as="geometry">
            <mxRectangle width="164" height="41" as="alternateBounds" />
          </mxGeometry>
        </mxCell>
        <mxCell id="ZVA1BWeULTHNvcGJV3LB-73" value="" style="shape=partialRectangle;html=1;whiteSpace=wrap;connectable=0;strokeColor=inherit;overflow=hidden;fillColor=none;top=0;left=0;bottom=0;right=0;pointerEvents=1;fontSize=16;" vertex="1" parent="ZVA1BWeULTHNvcGJV3LB-70">
          <mxGeometry x="327" width="163" height="41" as="geometry">
            <mxRectangle width="163" height="41" as="alternateBounds" />
          </mxGeometry>
        </mxCell>
        <mxCell id="ZVA1BWeULTHNvcGJV3LB-74" value="" style="shape=tableRow;horizontal=0;startSize=0;swimlaneHead=0;swimlaneBody=0;strokeColor=inherit;top=0;left=0;bottom=0;right=0;collapsible=0;dropTarget=0;fillColor=none;points=[[0,0.5],[1,0.5]];portConstraint=eastwest;fontSize=16;" vertex="1" parent="ZVA1BWeULTHNvcGJV3LB-69">
          <mxGeometry y="41" width="490" height="41" as="geometry" />
        </mxCell>
        <mxCell id="ZVA1BWeULTHNvcGJV3LB-75" value="" style="shape=partialRectangle;html=1;whiteSpace=wrap;connectable=0;strokeColor=inherit;overflow=hidden;fillColor=none;top=0;left=0;bottom=0;right=0;pointerEvents=1;fontSize=16;" vertex="1" parent="ZVA1BWeULTHNvcGJV3LB-74">
          <mxGeometry width="163" height="41" as="geometry">
            <mxRectangle width="163" height="41" as="alternateBounds" />
          </mxGeometry>
        </mxCell>
        <mxCell id="ZVA1BWeULTHNvcGJV3LB-76" value="" style="shape=partialRectangle;html=1;whiteSpace=wrap;connectable=0;strokeColor=inherit;overflow=hidden;fillColor=none;top=0;left=0;bottom=0;right=0;pointerEvents=1;fontSize=16;" vertex="1" parent="ZVA1BWeULTHNvcGJV3LB-74">
          <mxGeometry x="163" width="164" height="41" as="geometry">
            <mxRectangle width="164" height="41" as="alternateBounds" />
          </mxGeometry>
        </mxCell>
        <mxCell id="ZVA1BWeULTHNvcGJV3LB-77" value="" style="shape=partialRectangle;html=1;whiteSpace=wrap;connectable=0;strokeColor=inherit;overflow=hidden;fillColor=none;top=0;left=0;bottom=0;right=0;pointerEvents=1;fontSize=16;" vertex="1" parent="ZVA1BWeULTHNvcGJV3LB-74">
          <mxGeometry x="327" width="163" height="41" as="geometry">
            <mxRectangle width="163" height="41" as="alternateBounds" />
          </mxGeometry>
        </mxCell>
        <mxCell id="ZVA1BWeULTHNvcGJV3LB-78" value="" style="shape=tableRow;horizontal=0;startSize=0;swimlaneHead=0;swimlaneBody=0;strokeColor=inherit;top=0;left=0;bottom=0;right=0;collapsible=0;dropTarget=0;fillColor=none;points=[[0,0.5],[1,0.5]];portConstraint=eastwest;fontSize=16;" vertex="1" parent="ZVA1BWeULTHNvcGJV3LB-69">
          <mxGeometry y="82" width="490" height="38" as="geometry" />
        </mxCell>
        <mxCell id="ZVA1BWeULTHNvcGJV3LB-79" value="" style="shape=partialRectangle;html=1;whiteSpace=wrap;connectable=0;strokeColor=inherit;overflow=hidden;fillColor=none;top=0;left=0;bottom=0;right=0;pointerEvents=1;fontSize=16;" vertex="1" parent="ZVA1BWeULTHNvcGJV3LB-78">
          <mxGeometry width="163" height="38" as="geometry">
            <mxRectangle width="163" height="38" as="alternateBounds" />
          </mxGeometry>
        </mxCell>
        <mxCell id="ZVA1BWeULTHNvcGJV3LB-80" value="" style="shape=partialRectangle;html=1;whiteSpace=wrap;connectable=0;strokeColor=inherit;overflow=hidden;fillColor=none;top=0;left=0;bottom=0;right=0;pointerEvents=1;fontSize=16;" vertex="1" parent="ZVA1BWeULTHNvcGJV3LB-78">
          <mxGeometry x="163" width="164" height="38" as="geometry">
            <mxRectangle width="164" height="38" as="alternateBounds" />
          </mxGeometry>
        </mxCell>
        <mxCell id="ZVA1BWeULTHNvcGJV3LB-81" value="" style="shape=partialRectangle;html=1;whiteSpace=wrap;connectable=0;strokeColor=inherit;overflow=hidden;fillColor=none;top=0;left=0;bottom=0;right=0;pointerEvents=1;fontSize=16;" vertex="1" parent="ZVA1BWeULTHNvcGJV3LB-78">
          <mxGeometry x="327" width="163" height="38" as="geometry">
            <mxRectangle width="163" height="38" as="alternateBounds" />
          </mxGeometry>
        </mxCell>
        <mxCell id="ZVA1BWeULTHNvcGJV3LB-82" value="" style="shape=table;startSize=0;container=1;collapsible=0;childLayout=tableLayout;fontSize=16;" vertex="1" parent="1">
          <mxGeometry x="530" y="490" width="520" height="120" as="geometry" />
        </mxCell>
        <mxCell id="ZVA1BWeULTHNvcGJV3LB-83" value="" style="shape=tableRow;horizontal=0;startSize=0;swimlaneHead=0;swimlaneBody=0;strokeColor=inherit;top=0;left=0;bottom=0;right=0;collapsible=0;dropTarget=0;fillColor=none;points=[[0,0.5],[1,0.5]];portConstraint=eastwest;fontSize=16;" vertex="1" parent="ZVA1BWeULTHNvcGJV3LB-82">
          <mxGeometry width="520" height="41" as="geometry" />
        </mxCell>
        <mxCell id="ZVA1BWeULTHNvcGJV3LB-84" value="" style="shape=partialRectangle;html=1;whiteSpace=wrap;connectable=0;strokeColor=inherit;overflow=hidden;fillColor=none;top=0;left=0;bottom=0;right=0;pointerEvents=1;fontSize=16;" vertex="1" parent="ZVA1BWeULTHNvcGJV3LB-83">
          <mxGeometry width="173" height="41" as="geometry">
            <mxRectangle width="173" height="41" as="alternateBounds" />
          </mxGeometry>
        </mxCell>
        <mxCell id="ZVA1BWeULTHNvcGJV3LB-85" value="" style="shape=partialRectangle;html=1;whiteSpace=wrap;connectable=0;strokeColor=inherit;overflow=hidden;fillColor=none;top=0;left=0;bottom=0;right=0;pointerEvents=1;fontSize=16;" vertex="1" parent="ZVA1BWeULTHNvcGJV3LB-83">
          <mxGeometry x="173" width="174" height="41" as="geometry">
            <mxRectangle width="174" height="41" as="alternateBounds" />
          </mxGeometry>
        </mxCell>
        <mxCell id="ZVA1BWeULTHNvcGJV3LB-86" value="" style="shape=partialRectangle;html=1;whiteSpace=wrap;connectable=0;strokeColor=inherit;overflow=hidden;fillColor=none;top=0;left=0;bottom=0;right=0;pointerEvents=1;fontSize=16;" vertex="1" parent="ZVA1BWeULTHNvcGJV3LB-83">
          <mxGeometry x="347" width="173" height="41" as="geometry">
            <mxRectangle width="173" height="41" as="alternateBounds" />
          </mxGeometry>
        </mxCell>
        <mxCell id="ZVA1BWeULTHNvcGJV3LB-87" value="" style="shape=tableRow;horizontal=0;startSize=0;swimlaneHead=0;swimlaneBody=0;strokeColor=inherit;top=0;left=0;bottom=0;right=0;collapsible=0;dropTarget=0;fillColor=none;points=[[0,0.5],[1,0.5]];portConstraint=eastwest;fontSize=16;" vertex="1" parent="ZVA1BWeULTHNvcGJV3LB-82">
          <mxGeometry y="41" width="520" height="41" as="geometry" />
        </mxCell>
        <mxCell id="ZVA1BWeULTHNvcGJV3LB-88" value="" style="shape=partialRectangle;html=1;whiteSpace=wrap;connectable=0;strokeColor=inherit;overflow=hidden;fillColor=none;top=0;left=0;bottom=0;right=0;pointerEvents=1;fontSize=16;" vertex="1" parent="ZVA1BWeULTHNvcGJV3LB-87">
          <mxGeometry width="173" height="41" as="geometry">
            <mxRectangle width="173" height="41" as="alternateBounds" />
          </mxGeometry>
        </mxCell>
        <mxCell id="ZVA1BWeULTHNvcGJV3LB-89" value="" style="shape=partialRectangle;html=1;whiteSpace=wrap;connectable=0;strokeColor=inherit;overflow=hidden;fillColor=none;top=0;left=0;bottom=0;right=0;pointerEvents=1;fontSize=16;" vertex="1" parent="ZVA1BWeULTHNvcGJV3LB-87">
          <mxGeometry x="173" width="174" height="41" as="geometry">
            <mxRectangle width="174" height="41" as="alternateBounds" />
          </mxGeometry>
        </mxCell>
        <mxCell id="ZVA1BWeULTHNvcGJV3LB-90" value="" style="shape=partialRectangle;html=1;whiteSpace=wrap;connectable=0;strokeColor=inherit;overflow=hidden;fillColor=none;top=0;left=0;bottom=0;right=0;pointerEvents=1;fontSize=16;" vertex="1" parent="ZVA1BWeULTHNvcGJV3LB-87">
          <mxGeometry x="347" width="173" height="41" as="geometry">
            <mxRectangle width="173" height="41" as="alternateBounds" />
          </mxGeometry>
        </mxCell>
        <mxCell id="ZVA1BWeULTHNvcGJV3LB-91" value="" style="shape=tableRow;horizontal=0;startSize=0;swimlaneHead=0;swimlaneBody=0;strokeColor=inherit;top=0;left=0;bottom=0;right=0;collapsible=0;dropTarget=0;fillColor=none;points=[[0,0.5],[1,0.5]];portConstraint=eastwest;fontSize=16;" vertex="1" parent="ZVA1BWeULTHNvcGJV3LB-82">
          <mxGeometry y="82" width="520" height="38" as="geometry" />
        </mxCell>
        <mxCell id="ZVA1BWeULTHNvcGJV3LB-92" value="" style="shape=partialRectangle;html=1;whiteSpace=wrap;connectable=0;strokeColor=inherit;overflow=hidden;fillColor=none;top=0;left=0;bottom=0;right=0;pointerEvents=1;fontSize=16;" vertex="1" parent="ZVA1BWeULTHNvcGJV3LB-91">
          <mxGeometry width="173" height="38" as="geometry">
            <mxRectangle width="173" height="38" as="alternateBounds" />
          </mxGeometry>
        </mxCell>
        <mxCell id="ZVA1BWeULTHNvcGJV3LB-93" value="" style="shape=partialRectangle;html=1;whiteSpace=wrap;connectable=0;strokeColor=inherit;overflow=hidden;fillColor=none;top=0;left=0;bottom=0;right=0;pointerEvents=1;fontSize=16;" vertex="1" parent="ZVA1BWeULTHNvcGJV3LB-91">
          <mxGeometry x="173" width="174" height="38" as="geometry">
            <mxRectangle width="174" height="38" as="alternateBounds" />
          </mxGeometry>
        </mxCell>
        <mxCell id="ZVA1BWeULTHNvcGJV3LB-94" value="" style="shape=partialRectangle;html=1;whiteSpace=wrap;connectable=0;strokeColor=inherit;overflow=hidden;fillColor=none;top=0;left=0;bottom=0;right=0;pointerEvents=1;fontSize=16;" vertex="1" parent="ZVA1BWeULTHNvcGJV3LB-91">
          <mxGeometry x="347" width="173" height="38" as="geometry">
            <mxRectangle width="173" height="38" as="alternateBounds" />
          </mxGeometry>
        </mxCell>
        <mxCell id="ZVA1BWeULTHNvcGJV3LB-95" value="Remove" style="html=1;shadow=0;dashed=0;shape=mxgraph.bootstrap.rrect;rSize=5;strokeColor=none;strokeWidth=1;fillColor=#DB2843;fontColor=#FFFFFF;whiteSpace=wrap;align=center;verticalAlign=middle;spacingLeft=0;fontStyle=0;fontSize=16;spacing=5;" vertex="1" parent="1">
          <mxGeometry x="920" y="300" width="100" height="20" as="geometry" />
        </mxCell>
        <mxCell id="ZVA1BWeULTHNvcGJV3LB-96" value="Remove" style="html=1;shadow=0;dashed=0;shape=mxgraph.bootstrap.rrect;rSize=5;strokeColor=none;strokeWidth=1;fillColor=#DB2843;fontColor=#FFFFFF;whiteSpace=wrap;align=center;verticalAlign=middle;spacingLeft=0;fontStyle=0;fontSize=16;spacing=5;" vertex="1" parent="1">
          <mxGeometry x="920" y="340" width="100" height="20" as="geometry" />
        </mxCell>
        <mxCell id="ZVA1BWeULTHNvcGJV3LB-97" value="Remove" style="html=1;shadow=0;dashed=0;shape=mxgraph.bootstrap.rrect;rSize=5;strokeColor=none;strokeWidth=1;fillColor=#DB2843;fontColor=#FFFFFF;whiteSpace=wrap;align=center;verticalAlign=middle;spacingLeft=0;fontStyle=0;fontSize=16;spacing=5;" vertex="1" parent="1">
          <mxGeometry x="920" y="380" width="100" height="20" as="geometry" />
        </mxCell>
        <mxCell id="ZVA1BWeULTHNvcGJV3LB-98" value="Remove" style="html=1;shadow=0;dashed=0;shape=mxgraph.bootstrap.rrect;rSize=5;strokeColor=none;strokeWidth=1;fillColor=#DB2843;fontColor=#FFFFFF;whiteSpace=wrap;align=center;verticalAlign=middle;spacingLeft=0;fontStyle=0;fontSize=16;spacing=5;" vertex="1" parent="1">
          <mxGeometry x="920" y="420" width="100" height="20" as="geometry" />
        </mxCell>
        <mxCell id="ZVA1BWeULTHNvcGJV3LB-99" value="Remove" style="html=1;shadow=0;dashed=0;shape=mxgraph.bootstrap.rrect;rSize=5;strokeColor=none;strokeWidth=1;fillColor=#DB2843;fontColor=#FFFFFF;whiteSpace=wrap;align=center;verticalAlign=middle;spacingLeft=0;fontStyle=0;fontSize=16;spacing=5;" vertex="1" parent="1">
          <mxGeometry x="920" y="460" width="100" height="20" as="geometry" />
        </mxCell>
        <mxCell id="ZVA1BWeULTHNvcGJV3LB-100" value="Remove" style="html=1;shadow=0;dashed=0;shape=mxgraph.bootstrap.rrect;rSize=5;strokeColor=none;strokeWidth=1;fillColor=#DB2843;fontColor=#FFFFFF;whiteSpace=wrap;align=center;verticalAlign=middle;spacingLeft=0;fontStyle=0;fontSize=16;spacing=5;" vertex="1" parent="1">
          <mxGeometry x="920" y="500" width="100" height="20" as="geometry" />
        </mxCell>
        <mxCell id="ZVA1BWeULTHNvcGJV3LB-101" value="Remove" style="html=1;shadow=0;dashed=0;shape=mxgraph.bootstrap.rrect;rSize=5;strokeColor=none;strokeWidth=1;fillColor=#DB2843;fontColor=#FFFFFF;whiteSpace=wrap;align=center;verticalAlign=middle;spacingLeft=0;fontStyle=0;fontSize=16;spacing=5;" vertex="1" parent="1">
          <mxGeometry x="920" y="540" width="100" height="20" as="geometry" />
        </mxCell>
        <mxCell id="ZVA1BWeULTHNvcGJV3LB-102" value="Remove" style="html=1;shadow=0;dashed=0;shape=mxgraph.bootstrap.rrect;rSize=5;strokeColor=none;strokeWidth=1;fillColor=#DB2843;fontColor=#FFFFFF;whiteSpace=wrap;align=center;verticalAlign=middle;spacingLeft=0;fontStyle=0;fontSize=16;spacing=5;" vertex="1" parent="1">
          <mxGeometry x="920" y="580" width="100" height="20" as="geometry" />
        </mxCell>
      </root>
    </mxGraphModel>
  </diagram>
</mxfile>
